PathFileType	4	(X/Y/Z)	C:/Users/opensim2020/Desktop/walking_exp_matlab/subject06_walking17_straight_04.trc	
DataRate	CameraRate	NumFrames	NumMarkers	Units	OrigDataRate	OrigDataStartFrame	OrigNumFrames	
100.00	100.00	6	45	mm	100.00	4286	318	
Frame#	Time	LFHD			RFHD			LBHD			RBHD			C7			T10			CLAV			STRN			RBAK			LSHO			LUPA			LELB			LFRM			LWRA			LWRB			LFIN			RSHO			RUPA			RELB			RFRM			RWRA			RWRB			RFIN			LASI			RASI			LPSI			RPSI			LTHI			LKNE			LTIB			LANK			LHEE			LTOE			RTHI			RKNE			RTIB			RANK			RHEE			RTOE			*39			*40			*41			*42			*43			*44			
		X1	Y1	Z1	X2	Y2	Z2	X3	Y3	Z3	X4	Y4	Z4	X5	Y5	Z5	X6	Y6	Z6	X7	Y7	Z7	X8	Y8	Z8	X9	Y9	Z9	X10	Y10	Z10	X11	Y11	Z11	X12	Y12	Z12	X13	Y13	Z13	X14	Y14	Z14	X15	Y15	Z15	X16	Y16	Z16	X17	Y17	Z17	X18	Y18	Z18	X19	Y19	Z19	X20	Y20	Z20	X21	Y21	Z21	X22	Y22	Z22	X23	Y23	Z23	X24	Y24	Z24	X25	Y25	Z25	X26	Y26	Z26	X27	Y27	Z27	X28	Y28	Z28	X29	Y29	Z29	X30	Y30	Z30	X31	Y31	Z31	X32	Y32	Z32	X33	Y33	Z33	X34	Y34	Z34	X35	Y35	Z35	X36	Y36	Z36	X37	Y37	Z37	X38	Y38	Z38	X39	Y39	Z39	X40	Y40	Z40	X41	Y41	Z41	X42	Y42	Z42	X43	Y43	Z43	X44	Y44	Z44	X45	Y45	Z45	

1	0.000	1494.01965	1388.42749	1672.18420	1363.06775	1386.93799	1655.12781	1493.98389	1524.50525	1625.14893	1365.90137	1521.59521	1613.73547	1431.92896	1531.17432	1463.28479	1412.86902	1573.51685	1136.40234	1444.77588	1425.01697	1382.76929	1452.59009	1392.91943	1205.80811	1336.82068	1595.54016	1297.07227	1598.28162	1501.89441	1412.84534	1666.27356	1525.22107	1209.94971	1677.35193	1534.39124	1097.95972	1701.12683	1503.20447	951.06445	1664.67957	1428.30383	843.04993	1694.27124	1491.44946	831.06525	1702.18555	1441.73096	754.51886	1279.60657	1442.39795	1419.98218	1181.30896	1472.37866	1224.27979	1168.27271	1462.75562	1102.32410	1156.38916	1435.50671	984.93231	1202.34436	1369.25610	853.41913	1152.66260	1415.21960	849.19788	1158.95056	1370.34644	778.09125	1539.79712	1411.01904	970.49536	1321.69995	1389.91992	975.50116	1498.43848	1567.19775	1001.30737	1330.59204	1543.04944	1006.64117	1590.04907	1421.30396	661.10400	1562.70032	1375.81824	506.24121	1563.32837	1488.89392	283.71552	1531.83203	1549.38330	120.89156	1480.80298	1586.06506	112.44184	1554.00928	1424.40051	54.32748	1275.05774	1454.56677	638.70795	1305.22949	1459.44958	514.32526	1320.21985	1524.14404	255.77940	1373.20081	1556.14832	73.26247	1416.22888	1600.25867	49.36765	1385.86926	1408.33496	43.94156	1430.87830	1485.32800	1712.95886															 
2	0.010	1494.48511	1383.11646	1671.85474	1363.55823	1381.65369	1654.88330	1494.41003	1519.10132	1624.63123	1366.37708	1516.21582	1613.34412	1432.21082	1525.66357	1462.95410	1413.25208	1568.21179	1136.07751	1445.05371	1419.48560	1382.39587	1452.60864	1387.45776	1205.42737	1336.88733	1590.12756	1296.89050	1598.54346	1496.43604	1412.36218	1666.55115	1520.94788	1209.66797	1677.74377	1530.99097	1097.76978	1701.23462	1501.28870	950.37848	1664.90735	1427.84155	841.50500	1694.63000	1491.13538	830.38788	1702.17102	1442.19385	752.88037	1279.73364	1436.77600	1419.74243	1181.73022	1466.28381	1223.75317	1168.92664	1456.77246	1101.77222	1157.21826	1429.55127	984.38849	1203.68530	1363.40295	852.93292	1153.71899	1409.28271	848.64160	1160.04700	1364.42871	777.45215	1539.67480	1404.98242	970.18518	1321.44751	1385.11560	975.08740	1499.07886	1561.43848	1000.88928	1331.07263	1538.26587	1006.11688	1591.26440	1413.19531	661.82672	1562.84253	1367.66675	506.63129	1565.09045	1473.10010	279.91522	1534.52698	1527.78162	115.04617	1483.98376	1564.41272	104.93006	1555.17285	1400.12354	53.14189	1275.31018	1450.69226	638.24127	1305.48621	1455.71033	513.90503	1320.46814	1522.15759	255.60829	1373.31873	1555.82031	73.28002	1416.23413	1600.11096	49.67179	1386.11206	1407.88855	43.58447	1431.42639	1480.06128	1712.57886															 
3	0.020	1494.94556	1377.74426	1671.44580	1363.93433	1376.28711	1654.61975	1494.85059	1513.67249	1624.07434	1366.83875	1510.83154	1612.92358	1432.52795	1520.20959	1462.59631	1413.61169	1562.86414	1135.66956	1445.23303	1413.97839	1381.98376	1452.59631	1381.99243	1204.97131	1337.07935	1584.71362	1296.68835	1598.84326	1490.99719	1411.88672	1666.89795	1516.59570	1209.33948	1678.07141	1527.46521	1097.55212	1701.12976	1499.10999	949.49237	1665.07239	1427.38721	840.10455	1694.99390	1490.67407	829.71045	1702.38232	1442.75793	751.74854	1280.02502	1431.25061	1419.34424	1182.02563	1460.34558	1223.20471	1169.67346	1450.79614	1101.19141	1158.17188	1423.63550	983.75861	1204.90747	1357.56506	852.24756	1154.97034	1403.33765	848.03619	1161.50122	1358.72937	776.78674	1539.47717	1398.94019	969.94507	1321.10522	1380.26025	974.63324	1499.69458	1555.69800	1000.50787	1331.53821	1533.41711	1005.58508	1591.68970	1406.43457	661.86633	1563.15771	1359.78113	506.86118	1566.79248	1457.14148	276.27640	1536.67896	1505.44617	109.13295	1486.41125	1542.46436	97.81566	1555.40259	1375.46826	51.69742	1275.63904	1446.67053	637.60352	1305.57813	1452.18860	513.32697	1320.67126	1520.41394	255.46851	1373.41589	1555.54419	73.33460	1416.29749	1600.02332	49.79714	1386.07410	1407.64221	43.20695	1431.94470	1474.71411	1712.10095															 
4	0.030	1495.37683	1372.31555	1671.03174	1364.40051	1370.90991	1654.33997	1495.29175	1508.20752	1623.51709	1367.21655	1505.32910	1612.49915	1432.75977	1514.59985	1462.18750	1413.94312	1557.42798	1135.28760	1445.43933	1408.43848	1381.58630	1452.62158	1376.48071	1204.54431	1337.19983	1579.25415	1296.45349	1599.09094	1485.34094	1411.34668	1667.22119	1512.21387	1209.00391	1678.33508	1523.79932	1097.29260	1701.66846	1497.21704	949.22675	1664.40552	1427.43420	838.34796	1695.25964	1490.14063	829.11798	1702.43152	1443.17041	750.49908	1280.23242	1425.69617	1418.99695	1182.56018	1454.07581	1222.57739	1170.45007	1444.82458	1100.53857	1159.20325	1417.63623	983.05542	1206.28687	1351.98291	851.41547	1156.15735	1397.46802	847.33191	1162.91565	1352.89221	776.09894	1539.32727	1392.86047	969.74615	1320.86609	1375.32800	974.11359	1500.30518	1549.93164	1000.17560	1331.96155	1528.42151	1005.04510	1592.23291	1400.00610	661.65930	1563.56970	1352.21313	507.09100	1568.74500	1441.30811	272.96295	1538.79150	1483.11780	103.84506	1489.02295	1520.46484	91.37903	1555.47083	1351.01953	50.94854	1275.91614	1442.76428	637.08563	1305.61145	1448.43640	512.63483	1320.87317	1518.70593	255.36224	1373.47339	1555.32361	73.43701	1416.36230	1599.95569	50.02074	1385.80273	1407.69897	42.93488	1432.49182	1469.42236	1711.72766															 
5	0.040	1495.81726	1366.90344	1670.61548	1364.79846	1365.48340	1654.06189	1495.74817	1502.73560	1622.95728	1367.59070	1499.89905	1612.02332	1433.01709	1509.09827	1461.79663	1414.27942	1552.01636	1134.86646	1445.73901	1402.84485	1381.21594	1452.69604	1370.92859	1204.11096	1338.48767	1574.58716	1296.66394	1599.36145	1479.76196	1410.82471	1667.53015	1507.61853	1208.70032	1678.65564	1520.04834	1097.10767	1701.86243	1495.03296	948.69604	1664.25269	1426.86267	836.96057	1695.53320	1489.50684	828.52954	1702.15454	1443.37756	749.02570	1280.46484	1420.03784	1418.64258	1183.10364	1447.92395	1221.98975	1171.29102	1438.86707	1099.82434	1160.25024	1411.74939	982.34064	1207.76892	1346.29883	850.70056	1157.57666	1391.60059	846.63971	1164.51624	1347.21594	775.31354	1539.15308	1386.77820	969.50482	1320.58838	1370.35547	973.60590	1500.79443	1544.10474	999.81012	1332.29395	1523.39832	1004.45026	1592.86023	1393.85986	661.51355	1564.06775	1344.84802	507.19818	1570.22229	1425.09521	269.55368	1540.60181	1460.58789	98.91298	1491.39160	1498.30322	85.46786	1554.85559	1326.54456	50.31934	1276.23535	1438.84351	636.56610	1305.98315	1444.80750	512.03577	1320.96960	1517.10852	255.22562	1373.46204	1555.36938	73.49134	1416.46765	1599.87390	50.33569	1385.90979	1407.13525	42.36504	1432.94250	1464.05005	1711.21887															 
6	0.050	1496.27039	1361.48511	1670.16553	1365.28186	1360.01721	1653.69983	1496.20471	1497.26172	1622.39966	1368.03564	1494.44666	1611.60742	1433.33545	1503.50171	1461.37073	1414.60681	1546.45386	1134.42419	1445.94458	1397.29028	1380.74878	1452.75671	1365.31409	1203.63757	1337.57813	1568.26428	1295.84534	1599.66345	1474.08496	1410.29797	1667.79175	1502.99158	1208.38330	1678.94214	1516.15186	1096.89771	1702.02002	1492.73816	948.20709	1663.98303	1426.24207	835.55927	1695.81274	1488.70984	828.03729	1702.10327	1443.66626	748.05206	1280.76685	1414.41284	1418.14453	1183.70203	1441.83118	1221.41956	1172.26160	1432.80432	1099.13806	1161.44202	1405.78210	981.51929	1209.38403	1340.44519	850.09882	1158.98584	1385.79089	845.92212	1166.26538	1341.46838	774.37793	1539.02942	1380.64429	969.21985	1320.39514	1365.19067	973.00012	1501.23340	1538.19336	999.44000	1332.67249	1518.25598	1003.86139	1593.62488	1387.86243	661.26190	1564.75818	1337.81372	507.17041	1571.32349	1408.60803	266.18082	1542.17371	1437.92896	94.46812	1493.70862	1476.14172	80.18594	1553.53589	1301.92102	49.51155	1276.50659	1434.88477	635.91449	1306.16003	1441.29211	511.47879	1321.20544	1515.36353	255.05193	1373.62988	1554.76965	73.57961	1416.52295	1599.69714	50.59191	1385.53979	1406.84290	41.81482	1433.48743	1458.65271	1710.75488															 
